<svg width="187" height="65" viewBox="0 0 187 65" fill="none" xmlns="http://www.w3.org/2000/svg">
<g clip-path="url(#clip0_2258_15165)">
<path d="M109.95 15.4918V50.9854H101.494V33.2739C101.494 30.4399 100.508 28.0314 98.5344 26.0475C96.561 24.0645 94.1653 23.0722 91.3462 23.0722C89.9832 23.0722 88.6795 23.3326 87.4351 23.8518C86.1898 24.3718 85.0977 25.1037 84.1581 26.0475C82.1847 28.0314 81.1985 30.4399 81.1985 33.2739C81.1985 36.0611 82.1847 38.4458 84.1581 40.4297C85.0977 41.4211 86.1898 42.165 87.4351 42.6611C88.6795 43.1573 89.9832 43.405 91.3462 43.405C92.7557 43.405 94.0239 43.1692 95.1515 42.696L98.1813 50.2765C96.0201 51.3624 93.5066 51.9062 90.6419 51.9062C88.0573 51.9062 85.6734 51.4211 83.4884 50.4543C81.3043 49.4867 79.4122 48.1514 77.8156 46.4509C76.2182 44.7514 74.9729 42.7675 74.0806 40.5003C73.1875 38.2331 72.7422 35.8245 72.7422 33.2739C72.7422 30.6773 73.1875 28.2441 74.0806 25.9769C74.9729 23.7097 76.2182 21.7258 77.8156 20.0262C79.4122 18.3258 81.3043 16.9914 83.4884 16.0237C85.6734 15.056 88.0573 14.5709 90.6419 14.5709C92.9428 14.5709 94.9864 14.925 96.7727 15.6339C98.5572 16.342 100.131 17.2399 101.494 18.3258V15.4918H109.95Z" fill="#195190"/>
<path d="M134.192 14.5705C136.775 14.5705 139.16 15.0556 141.345 16.0232C143.53 16.9909 145.42 18.3254 147.017 20.0258C148.614 21.7254 149.859 23.7092 150.752 25.9764C151.645 28.2437 152.092 30.6768 152.092 33.2734C152.092 35.8241 151.645 38.2326 150.752 40.4998C149.859 42.7671 148.614 44.7509 147.017 46.4505C145.42 48.1509 143.53 49.4862 141.345 50.4539C139.16 51.4207 136.775 51.9058 134.192 51.9058C131.326 51.9058 128.812 51.362 126.652 50.276L129.682 42.6956C130.809 43.1688 132.078 43.4045 133.488 43.4045C134.85 43.4045 136.141 43.1568 137.363 42.6607C138.584 42.1645 139.689 41.4207 140.675 40.4292C142.648 38.4454 143.635 36.0607 143.635 33.2734C143.635 30.4394 142.648 28.0309 140.675 26.0471C138.608 24.0641 136.211 23.0717 133.488 23.0717C130.669 23.0717 128.273 24.0641 126.3 26.0471C124.326 28.0309 123.34 30.4394 123.34 33.2734V48.1509V65.1543H114.883V15.4913H123.34V18.3254C124.701 17.2394 126.275 16.3415 128.061 15.6334C129.846 14.9245 131.889 14.5705 134.192 14.5705Z" fill="#195190"/>
<path d="M174.567 50.9854H166.815C165.218 50.9854 163.715 50.679 162.305 50.0645C160.896 49.4509 159.673 48.6117 158.641 47.5496C157.607 46.4866 156.784 45.2475 156.175 43.8305C155.563 42.4134 155.258 40.9019 155.258 39.296V8.40748L163.715 6.28237V19.8134H168.648L170.762 28.3147H163.715V39.296C163.715 40.1939 164.02 40.9496 164.631 41.5632C165.24 42.1777 165.969 42.4841 166.815 42.4841H172.453L174.567 50.9854Z" fill="#195190"/>
<path d="M177.391 15.5629H185.847V50.9859H177.391V15.5629ZM177.391 1.39355H185.847V9.89484H177.391V1.39355Z" fill="#195190"/>
</g>
<path fill-rule="evenodd" clip-rule="evenodd" d="M36.4238 59.595C36.0042 59.339 35.549 59.1414 35.1056 58.9296C34.8156 58.7881 34.3896 58.5574 34.5635 58.2729C35.2502 57.1681 34.6694 55.8917 35.0621 54.8051C36.5218 50.7699 35.7868 46.4842 36.4617 42.3479C36.5305 41.929 36.4293 41.5876 36.2112 41.3102C36.2167 38.7062 35.7552 36.1947 34.5445 33.8096C33.8949 32.5294 33.8261 31.3447 35.0819 30.3553C35.6438 29.9119 35.6043 29.3856 35.5015 28.8103C35.398 28.2326 34.6117 28.1322 34.4963 27.6233C34.2734 26.6275 33.7179 26.1707 32.6075 26.2387C31.6189 26.298 30.729 26.4734 30.013 27.1831C28.8323 28.3543 28.6656 29.3682 29.5539 30.2612C31.1368 31.8489 31.1004 31.8394 30.4706 33.8294C29.8218 35.8794 29.5807 37.9871 29.6684 39.9699C29.6684 40.6914 29.6977 41.292 29.67 41.8753C29.5649 42.0673 29.512 42.2791 29.527 42.5035C29.5918 43.4519 28.9983 44.3615 29.5009 45.3225C30.0699 46.4075 30.1695 47.6246 29.9703 48.7974C29.708 50.3495 29.8107 51.8992 29.7554 53.4466C29.5673 55.9226 30.0913 58.3677 30.0415 60.8397C30.0233 61.7896 30.4595 62.2575 31.4901 62.3926C32.93 62.5776 34.3311 62.2844 35.7505 62.3247C36.355 62.3428 37.0228 62.2132 37.1358 61.5217C37.252 60.8128 37.1445 60.032 36.4238 59.595ZM32.5564 0.512695C14.8834 0.512695 0.554688 14.8414 0.554688 32.5144C0.554688 50.1874 14.8834 64.5127 32.5564 64.5127C50.2294 64.5127 64.5547 50.1874 64.5547 32.5144C64.5547 14.8414 50.2294 0.512695 32.5564 0.512695ZM32.6008 6.77167C46.8043 6.77167 58.3196 18.2835 58.3196 32.4871C58.3196 43.8234 50.9853 53.4475 40.8027 56.8708V56.9459L40.7617 56.8845C40.7753 56.8799 40.789 56.8754 40.8027 56.8708V49.823C47.3648 46.7852 51.9172 40.1424 51.9172 32.4359C51.9172 21.8594 43.3446 13.2867 32.7681 13.2867C22.1916 13.2867 13.6156 21.8594 13.6156 32.4359C13.6156 39.9941 17.9955 46.5309 24.3545 49.6455V56.8264H24.3238C24.3238 56.8264 24.3137 56.8399 24.3135 56.8401C14.1771 53.3908 6.88537 43.7904 6.88537 32.4871C6.88537 18.2835 18.3972 6.77167 32.6008 6.77167Z" fill="#195190"/>
<defs>
<clipPath id="clip0_2258_15165">
<rect width="113.778" height="64" fill="white" transform="translate(72.4219 0.918945)"/>
</clipPath>
</defs>
</svg>
