<svg width="21" height="21" viewBox="0 0 21 21" fill="none" xmlns="http://www.w3.org/2000/svg">
<path d="M10.2578 3.82031L11.1953 2.21875C11.8203 1.125 12.9531 0.460938 14.2031 0.460938H14.3203C16.1953 0.460938 17.7578 2.02344 17.7578 3.89844C17.7578 4.48438 17.6016 4.99219 17.3672 5.46094H18.3828C19.3984 5.46094 20.2578 6.32031 20.2578 7.33594V9.83594C20.2578 10.6562 19.7109 11.3594 19.0078 11.6328V17.9609C19.0078 19.3672 17.875 20.4609 16.5078 20.4609H4.00781C2.60156 20.4609 1.50781 19.3672 1.50781 17.9609V11.6328C0.765625 11.3594 0.257812 10.6562 0.257812 9.83594V7.33594C0.257812 6.32031 1.07812 5.46094 2.13281 5.46094H3.10938C2.875 4.99219 2.75781 4.48438 2.75781 3.89844C2.75781 2.02344 4.28125 0.460938 6.19531 0.460938H6.27344C7.52344 0.460938 8.65625 1.125 9.28125 2.21875L10.2578 3.82031ZM11.5078 7.33594V9.83594H18.3828V7.33594H11.5078ZM9.00781 7.33594H2.13281V9.83594H9.00781V7.33594ZM9.00781 11.7109H3.38281V17.9609C3.38281 18.3125 3.65625 18.5859 4.00781 18.5859H9.00781V11.7109ZM11.5078 18.5859H16.5078C16.8203 18.5859 17.1328 18.3125 17.1328 17.9609V11.7109H11.5078V18.5859ZM14.3203 5.46094C15.1797 5.46094 15.8828 4.79688 15.8828 3.89844C15.8828 3.03906 15.1797 2.33594 14.3203 2.33594H14.2031C13.6172 2.33594 13.1094 2.64844 12.7969 3.15625L11.4297 5.46094H14.3203ZM9.04688 5.46094L7.67969 3.15625C7.36719 2.64844 6.85938 2.33594 6.27344 2.33594H6.19531C5.29688 2.33594 4.63281 3.03906 4.63281 3.89844C4.63281 4.79688 5.29688 5.46094 6.19531 5.46094H9.04688Z" fill="#999999"/>
</svg>
