<svg width="16" height="21" viewBox="0 0 16 21" fill="none" xmlns="http://www.w3.org/2000/svg">
<path d="M13.2578 2.96094H11.3047C10.9922 1.55469 9.74219 0.460938 8.25781 0.460938C6.73438 0.460938 5.48438 1.55469 5.17188 2.96094H3.25781C1.85156 2.96094 0.757812 4.09375 0.757812 5.46094V17.9609C0.757812 19.3672 1.85156 20.4609 3.25781 20.4609H13.2578C14.625 20.4609 15.7578 19.3672 15.7578 17.9609V5.46094C15.7578 4.09375 14.625 2.96094 13.2578 2.96094ZM8.25781 2.33594C8.76562 2.33594 9.19531 2.76562 9.19531 3.27344C9.19531 3.82031 8.76562 4.21094 8.25781 4.21094C7.71094 4.21094 7.32031 3.82031 7.32031 3.27344C7.32031 2.76562 7.71094 2.33594 8.25781 2.33594ZM13.8828 17.9609C13.8828 18.3125 13.5703 18.5859 13.2578 18.5859H3.25781C2.90625 18.5859 2.63281 18.3125 2.63281 17.9609V5.46094C2.63281 5.14844 2.90625 4.83594 3.25781 4.83594H3.96094C3.88281 5.07031 3.88281 5.26562 3.88281 5.46094V6.08594C3.88281 6.4375 4.15625 6.71094 4.50781 6.71094H12.0078C12.3203 6.71094 12.6328 6.4375 12.6328 6.08594V5.46094C12.6328 5.26562 12.5938 5.07031 12.5156 4.83594H13.2578C13.5703 4.83594 13.8828 5.14844 13.8828 5.46094V17.9609ZM12.0078 10.4609H7.63281C7.28125 10.4609 7.00781 10.7734 7.00781 11.0859C7.00781 11.4375 7.28125 11.7109 7.63281 11.7109H12.0078C12.3203 11.7109 12.6328 11.4375 12.6328 11.0859C12.6328 10.7734 12.3203 10.4609 12.0078 10.4609ZM12.0078 14.2109H7.63281C7.28125 14.2109 7.00781 14.5234 7.00781 14.8359C7.00781 15.1875 7.28125 15.4609 7.63281 15.4609H12.0078C12.3203 15.4609 12.6328 15.1875 12.6328 14.8359C12.6328 14.5234 12.3203 14.2109 12.0078 14.2109ZM4.82031 13.8984C4.27344 13.8984 3.88281 14.3281 3.88281 14.8359C3.88281 15.3828 4.27344 15.7734 4.82031 15.7734C5.32812 15.7734 5.75781 15.3828 5.75781 14.8359C5.75781 14.3281 5.32812 13.8984 4.82031 13.8984ZM4.97656 11.7109C5.13281 11.7109 5.28906 11.6719 5.40625 11.5547L7.28125 9.67969C7.51562 9.44531 7.51562 9.01562 7.28125 8.78125C7.04688 8.54688 6.61719 8.54688 6.38281 8.78125L4.97656 10.2266L4.46875 9.71875C4.23438 9.48438 3.80469 9.48438 3.57031 9.71875C3.33594 9.95312 3.33594 10.3828 3.57031 10.6172L4.50781 11.5547C4.625 11.6719 4.78125 11.7109 4.97656 11.7109Z" fill="#999999"/>
</svg>
