<svg width="24" height="21" viewBox="0 0 24 21" fill="none" xmlns="http://www.w3.org/2000/svg">
<path d="M23.1562 9.44531C23.5469 9.79688 23.5859 10.3828 23.2734 10.7734C22.9219 11.1641 22.3359 11.2031 21.9453 10.8906L21.0078 10.0703V17.3359C21.0078 19.0938 19.6016 20.4609 17.8828 20.4609H6.63281C4.875 20.4609 3.50781 19.0938 3.50781 17.3359V10.0703L2.53125 10.8906C2.14062 11.2031 1.55469 11.1641 1.20312 10.7734C0.890625 10.3828 0.929688 9.79688 1.32031 9.44531L11.6328 0.695312C11.9844 0.421875 12.4922 0.421875 12.8438 0.695312L23.1562 9.44531ZM6.63281 18.5859H8.50781V12.6484C8.50781 11.7891 9.17188 11.0859 10.0703 11.0859H14.4453C15.3047 11.0859 16.0078 11.7891 16.0078 12.6484V18.5859H17.8828C18.5469 18.5859 19.1328 18.0391 19.1328 17.3359V8.46875L12.2578 2.64844L5.38281 8.46875V17.3359C5.38281 18.0391 5.92969 18.5859 6.63281 18.5859ZM10.3828 18.5859H14.1328V12.9609H10.3828V18.5859Z" fill="#999999"/>
</svg>
