<svg width="19" height="21" viewBox="0 0 19 21" fill="none" xmlns="http://www.w3.org/2000/svg">
<path d="M11.1797 12.3779H7.42969C3.60156 12.3779 0.554688 15.4639 0.554688 19.2529C0.554688 19.9561 1.10156 20.5029 1.80469 20.5029H16.8047C17.4688 20.5029 18.0547 19.9561 18.0547 19.2529C18.0547 15.4639 14.9688 12.3779 11.1797 12.3779ZM2.42969 18.6279C2.74219 16.167 4.85156 14.2529 7.42969 14.2529H11.1797C13.7188 14.2529 15.8281 16.167 16.1406 18.6279H2.42969ZM9.30469 10.5029C12.0391 10.5029 14.3047 8.27637 14.3047 5.50293C14.3047 2.76855 12.0391 0.50293 9.30469 0.50293C6.53125 0.50293 4.30469 2.76855 4.30469 5.50293C4.30469 8.27637 6.53125 10.5029 9.30469 10.5029ZM9.30469 2.37793C11.0234 2.37793 12.4297 3.78418 12.4297 5.50293C12.4297 7.26074 11.0234 8.62793 9.30469 8.62793C7.54688 8.62793 6.17969 7.26074 6.17969 5.50293C6.17969 3.78418 7.54688 2.37793 9.30469 2.37793Z" fill="#999999"/>
</svg>
