<svg width="16" height="21" viewBox="0 0 16 21" fill="none" xmlns="http://www.w3.org/2000/svg">
<path d="M4.24219 4.56543C4.24219 4.25293 4.51562 3.94043 4.86719 3.94043H6.74219C7.05469 3.94043 7.36719 4.25293 7.36719 4.56543V6.44043C7.36719 6.79199 7.05469 7.06543 6.74219 7.06543H4.86719C4.51562 7.06543 4.24219 6.79199 4.24219 6.44043V4.56543ZM11.7422 3.94043C12.0547 3.94043 12.3672 4.25293 12.3672 4.56543V6.44043C12.3672 6.79199 12.0547 7.06543 11.7422 7.06543H9.86719C9.51562 7.06543 9.24219 6.79199 9.24219 6.44043V4.56543C9.24219 4.25293 9.51562 3.94043 9.86719 3.94043H11.7422ZM4.24219 9.56543C4.24219 9.25293 4.51562 8.94043 4.86719 8.94043H6.74219C7.05469 8.94043 7.36719 9.25293 7.36719 9.56543V11.4404C7.36719 11.792 7.05469 12.0654 6.74219 12.0654H4.86719C4.51562 12.0654 4.24219 11.792 4.24219 11.4404V9.56543ZM11.7422 8.94043C12.0547 8.94043 12.3672 9.25293 12.3672 9.56543V11.4404C12.3672 11.792 12.0547 12.0654 11.7422 12.0654H9.86719C9.51562 12.0654 9.24219 11.792 9.24219 11.4404V9.56543C9.24219 9.25293 9.51562 8.94043 9.86719 8.94043H11.7422ZM0.804688 3.00293C0.804688 1.63574 1.89844 0.50293 3.30469 0.50293H13.3047C14.6719 0.50293 15.8047 1.63574 15.8047 3.00293V18.0029C15.8047 19.4092 14.6719 20.5029 13.3047 20.5029H3.30469C1.89844 20.5029 0.804688 19.4092 0.804688 18.0029V3.00293ZM2.67969 3.00293V18.0029C2.67969 18.3545 2.95312 18.6279 3.30469 18.6279H6.42969V16.1279C6.42969 15.1123 7.25 14.2529 8.30469 14.2529C9.32031 14.2529 10.1797 15.1123 10.1797 16.1279V18.6279H13.3047C13.6172 18.6279 13.9297 18.3545 13.9297 18.0029V3.00293C13.9297 2.69043 13.6172 2.37793 13.3047 2.37793H3.30469C2.95312 2.37793 2.67969 2.69043 2.67969 3.00293Z" fill="#999999"/>
</svg>
