<svg width="73" height="72" viewBox="0 0 73 72" fill="none" xmlns="http://www.w3.org/2000/svg">
<path d="M0.5 36C0.5 16.1719 16.5312 0 36.5 0C56.3281 0 72.5 16.1719 72.5 36C72.5 55.9688 56.3281 72 36.5 72C16.5312 72 0.5 55.9688 0.5 36ZM25.1094 29.3906L31.7188 36L25.1094 42.6094C23.7031 44.0156 23.7031 46.125 25.1094 47.3906C26.375 48.7969 28.4844 48.7969 29.75 47.3906L36.3594 40.7812L43.1094 47.3906C44.375 48.7969 46.4844 48.7969 47.75 47.3906C49.1562 46.125 49.1562 44.0156 47.75 42.6094L41.1406 36L47.75 29.3906C49.1562 28.125 49.1562 26.0156 47.75 24.6094C46.4844 23.3438 44.375 23.3438 43.1094 24.6094L36.3594 31.3594L29.75 24.6094C28.4844 23.3438 26.375 23.3438 25.1094 24.6094C23.7031 26.0156 23.7031 28.125 25.1094 29.3906Z" fill="#D50A0A"/>
</svg>
