<svg width="73" height="73" viewBox="0 0 73 73" fill="none" xmlns="http://www.w3.org/2000/svg">
<path d="M0.5 36.9961C0.5 17.168 16.5312 0.996094 36.5 0.996094C56.3281 0.996094 72.5 17.168 72.5 36.9961C72.5 56.9648 56.3281 72.9961 36.5 72.9961C16.5312 72.9961 0.5 56.9648 0.5 36.9961ZM52.6719 30.8086C54.2188 29.2617 54.2188 26.8711 52.6719 25.3242C51.125 23.7773 48.7344 23.7773 47.1875 25.3242L32 40.5117L25.6719 34.3242C24.125 32.7773 21.7344 32.7773 20.1875 34.3242C18.6406 35.8711 18.6406 38.2617 20.1875 39.8086L29.1875 48.8086C30.7344 50.3555 33.125 50.3555 34.6719 48.8086L52.6719 30.8086Z" fill="#7CB342"/>
</svg>
