<svg width="81" height="134" viewBox="0 0 81 134" fill="none" xmlns="http://www.w3.org/2000/svg">
<path d="M26.8729 9.95545V35.0054H20.8916V22.5053C20.8916 20.5052 20.194 18.8054 18.7982 17.4053C17.4024 16.0058 15.7078 15.3054 13.7138 15.3054C12.7497 15.3054 11.8276 15.4892 10.9474 15.8556C10.0665 16.2226 9.2941 16.7391 8.62944 17.4053C7.23365 18.8054 6.53605 20.5052 6.53605 22.5053C6.53605 24.4725 7.23365 26.1555 8.62944 27.5556C9.2941 28.2553 10.0665 28.7803 10.9474 29.1305C11.8276 29.4806 12.7497 29.6554 13.7138 29.6554C14.7108 29.6554 15.6078 29.489 16.4054 29.1551L18.5485 34.505C17.0198 35.2715 15.2419 35.6553 13.2156 35.6553C11.3875 35.6553 9.70128 35.3129 8.15579 34.6306C6.6109 33.9476 5.27259 33.0052 4.14327 31.8051C3.01334 30.6056 2.13251 29.2055 1.50138 27.6054C0.869655 26.0053 0.554688 24.3055 0.554688 22.5053C0.554688 20.6728 0.869655 18.9555 1.50138 17.3554C2.13251 15.7553 3.01334 14.3552 4.14327 13.1557C5.27259 11.9556 6.6109 11.0138 8.15579 10.3309C9.70128 9.64792 11.3875 9.30556 13.2156 9.30556C14.8431 9.30556 16.2886 9.55542 17.5521 10.0558C18.8143 10.5555 19.9275 11.1892 20.8916 11.9556V9.95545H26.8729Z" fill="white"/>
<path d="M44.0173 9.30589C45.8442 9.30589 47.5316 9.64826 49.0765 10.3312C50.622 11.0141 51.9591 11.9559 53.089 13.156C54.2183 14.3555 55.0992 15.7556 55.7309 17.3557C56.362 18.9559 56.6782 20.6731 56.6782 22.5057C56.6782 24.3058 56.362 26.0056 55.7309 27.6058C55.0992 29.2059 54.2183 30.606 53.089 31.8055C51.9591 33.0056 50.622 33.948 49.0765 34.6309C47.5316 35.3132 45.8442 35.6556 44.0173 35.6556C41.9898 35.6556 40.2119 35.2718 38.6838 34.5054L40.8269 29.1554C41.6245 29.4894 42.5221 29.6558 43.5191 29.6558C44.4825 29.6558 45.3957 29.481 46.2604 29.1308C47.1238 28.7806 47.9053 28.2557 48.6029 27.5559C49.9986 26.1558 50.6968 24.4728 50.6968 22.5057C50.6968 20.5055 49.9986 18.8057 48.6029 17.4056C47.1406 16.0061 45.4454 15.3057 43.5191 15.3057C41.5251 15.3057 39.8305 16.0061 38.4347 17.4056C37.0389 18.8057 36.3413 20.5055 36.3413 22.5057V33.0056V45.0059H30.3594V9.95579H36.3413V11.9559C37.3042 11.1895 38.4174 10.5558 39.6808 10.0561C40.9431 9.55576 42.3886 9.30589 44.0173 9.30589Z" fill="white"/>
<path d="M72.5798 35.0059H67.0966C65.9667 35.0059 64.9038 34.7896 63.9068 34.356C62.9098 33.9229 62.0452 33.3307 61.3147 32.5811C60.5835 31.8308 60.0015 30.9563 59.5704 29.9562C59.138 28.9562 58.9219 27.8894 58.9219 26.756V4.95616L64.9038 3.45635V13.006H68.393L69.8882 19.0059H64.9038V26.756C64.9038 27.3897 65.1194 27.923 65.5517 28.3561C65.9829 28.7898 66.4984 29.006 67.0966 29.006H71.0846L72.5798 35.0059Z" fill="white"/>
<path d="M74.5703 10.006H80.5517V35.0061H74.5703V10.006ZM74.5703 0.00585938H80.5517V6.00572H74.5703V0.00585938Z" fill="white"/>
<path fill-rule="evenodd" clip-rule="evenodd" d="M45.3911 126.943C44.8665 126.623 44.2975 126.376 43.7433 126.111C43.3808 125.934 42.8483 125.646 43.0657 125.29C43.9241 123.909 43.198 122.314 43.689 120.955C45.5136 115.911 44.5949 110.554 45.4385 105.384C45.5244 104.86 45.398 104.433 45.1253 104.087C45.1323 100.832 44.5554 97.6924 43.042 94.711C42.2299 93.1107 42.144 91.6299 43.7137 90.3931C44.4161 89.8389 44.3667 89.181 44.2382 88.4618C44.1088 87.7397 43.1259 87.6143 42.9817 86.9781C42.7031 85.7334 42.0087 85.1624 40.6207 85.2474C39.3849 85.3214 38.2726 85.5407 37.3776 86.4278C35.9017 87.8918 35.6933 89.1593 36.8036 90.2755C38.7823 92.2601 38.7369 92.2483 37.9496 94.7357C37.1385 97.2982 36.8372 99.9328 36.9469 102.411C36.9469 103.313 36.9834 104.064 36.9489 104.793C36.8175 105.033 36.7513 105.298 36.7701 105.578C36.8511 106.764 36.1092 107.901 36.7375 109.102C37.4487 110.458 37.5732 111.98 37.3242 113.446C36.9963 115.386 37.1247 117.323 37.0556 119.257C36.8204 122.352 37.4754 125.409 37.4132 128.499C37.3904 129.686 37.9357 130.271 39.2239 130.44C41.0238 130.671 42.7752 130.304 44.5494 130.355C45.3051 130.378 46.1399 130.216 46.2811 129.351C46.4263 128.465 46.292 127.489 45.3911 126.943ZM40.5568 53.0898C18.4656 53.0898 0.554688 71.0008 0.554688 93.092C0.554688 115.183 18.4656 133.09 40.5568 133.09C62.648 133.09 80.5547 115.183 80.5547 93.092C80.5547 71.0008 62.648 53.0898 40.5568 53.0898ZM40.6123 60.9136C58.3667 60.9136 72.7608 75.3034 72.7608 93.0578C72.7608 107.228 63.593 119.258 50.8647 123.537V123.631L50.8134 123.555C50.8305 123.549 50.8476 123.543 50.8647 123.537V114.728C59.0673 110.93 64.7579 102.627 64.7579 92.9938C64.7579 79.7732 54.042 69.0574 40.8215 69.0574C27.6009 69.0574 16.8808 79.7732 16.8808 92.9938C16.8808 102.442 22.3557 110.613 30.3045 114.506V123.482H30.266C30.266 123.482 30.2535 123.499 30.2532 123.499C17.5827 119.187 8.46804 107.187 8.46804 93.0578C8.46804 75.3034 22.8579 60.9136 40.6123 60.9136Z" fill="white"/>
</svg>
